# xmcd
#
# Track frame offsets: 
#        150
#        11954
#        42226
#        64266
#        84227
#        107026
#        136322
#        158586
#        186899
#        216042
#        240901
#        257275
#        297213
#
# Disc length: 4316 seconds
#
# Revision: 0
# Processed by: cddbd v1.5.2PL0 Copyright (c) Steve Scherf et al.
# Submitted via: ExactAudioCopy v0.99pb4
#
DISCID=a810da0d
DTITLE=Wild T and The Spirit - Fender Bender
DYEAR=2008
DGENRE=Blues Rock
TTITLE0=Let's Go
TTITLE1=The Best That I Can
TTITLE2=Secrets
TTITLE3=Life Goes On
TTITLE4=My Next Ex-Wife
TTITLE5=Finders Keepers
TTITLE6=Buried Alive
TTITLE7=I'll Play The Blues For You
TTITLE8=Why Why Why
TTITLE9=Keepin' It Real
TTITLE10=The Hard Way
TTITLE11=Twilight Zone
TTITLE12=Now and Zen
EXTD=
EXTT0=
EXTT1=
EXTT2=
EXTT3=
EXTT4=
EXTT5=
EXTT6=
EXTT7=
EXTT8=
EXTT9=
EXTT10=
EXTT11=
EXTT12=
PLAYORDER=
